<svg width="24" height="24" viewBox="0 0 24 24" fill="none" xmlns="http://www.w3.org/2000/svg">
<path d="M16.2611 4.86778C16.2611 5.76892 16.0773 6.61287 15.7571 7.33672C15.7469 7.38121 15.7319 7.42565 15.7118 7.46952L14.4964 10.1217C15.1298 9.15717 16.5053 7.28304 17.3736 6.70764C18.363 6.05208 19.7617 5.41356 20.6378 5.46638C21.9929 5.33159 22.9211 5.95578 23.5635 6.95073C24.6157 8.58024 23.7003 11.0729 21.519 12.5182C20.7878 13.0027 20.0072 13.308 19.2529 13.4385C19.2114 13.4541 19.1675 13.4659 19.1215 13.4733L16.0507 13.9627C16.2246 14.0023 16.3298 14.0261 16.3298 14.0261C17.3311 14.3 19.5541 15.0701 20.2548 15.7772C21.018 16.5474 21.7974 17.7371 21.8151 18.6408C22.0674 19.9628 21.4956 21.1191 20.5148 22.1164C18.9084 23.7499 16.2421 23.6975 14.5594 21.9994C13.9953 21.4302 13.6134 20.7483 13.4153 20.0318C13.3956 19.9954 13.3797 19.9552 13.3683 19.9112L12.3135 15.8587C12.0892 16.9252 11.8011 18.3342 11.8011 18.3342C11.5418 19.3691 10.8021 21.664 10.099 22.3791C9.33316 23.1581 8.143 23.9464 7.22864 23.9487C5.89514 24.1873 4.71459 23.573 3.68758 22.5367C2.00557 20.8397 2.01088 18.0717 3.69945 16.3543C4.26546 15.7787 4.94874 15.3942 5.67043 15.2012C5.70689 15.1814 5.7473 15.1656 5.79161 15.1545L7.48969 14.7288C6.29293 14.774 4.87547 14.75 4.14154 14.5118C2.94903 14.1249 1.49645 13.3881 0.952937 12.6285C-0.0628618 11.5961 -0.178866 10.4172 0.196351 9.23057C0.810871 7.28719 3.44039 6.40336 6.06956 7.25649C6.95084 7.54245 7.72022 7.98727 8.33055 8.52552C8.37095 8.54948 8.40985 8.57802 8.44662 8.61131L10.634 10.5911C10.3915 10.0991 10.2117 9.73557 10.2117 9.73557C9.75514 8.71673 8.84202 6.32679 8.84202 5.2074C8.84202 3.98802 9.0919 2.42488 9.641 1.69806C10.3026 0.453289 11.3769 0 12.6086 0C14.6258 0 16.2611 2.17938 16.2611 4.86778Z" fill="#D16596"/>
<path d="M15.074 5.66147C15.074 6.54258 14.9491 7.36778 14.7313 8.07554C14.7243 8.11905 14.7141 8.1625 14.7005 8.20539L13.4821 12.0284C13.9541 11.3052 14.4622 10.5213 14.4622 10.5213C14.9974 9.7555 16.3174 8.05971 17.1104 7.53792C17.9742 6.96951 19.1836 6.40006 19.9228 6.41109C21.0749 6.25234 21.8349 6.72552 22.3381 7.51021C23.1622 8.79535 22.2864 10.8531 20.3819 12.1062C19.7435 12.5263 19.0706 12.8026 18.427 12.936C18.3913 12.9503 18.3537 12.9614 18.3144 12.9691L14.1131 13.7862C14.9493 14.0887 15.9296 14.4389 15.9296 14.4389C16.7805 14.7793 18.6879 15.6677 19.3416 16.3275C20.0538 17.0462 20.8268 18.1098 20.9437 18.851C21.3001 19.9616 20.9629 20.8408 20.2729 21.5424C19.1429 22.6915 16.9539 22.3386 15.3837 20.7541C14.8574 20.2229 14.4674 19.6209 14.2241 19.0118C14.2038 18.9797 14.1863 18.945 14.1719 18.9077L12.4689 14.483C12.4675 14.4866 12.4662 14.4901 12.4648 14.4936C12.2837 14.9465 11.3637 17.4461 11.3637 17.4461C11.0105 18.3095 10.096 20.248 9.43458 20.9207C8.71404 21.6536 7.65416 22.4556 6.92535 22.5904C5.82916 22.9746 4.97565 22.6561 4.30425 21.9787C3.20464 20.8692 3.60104 18.66 5.18964 17.0443C5.72214 16.5028 6.32099 16.0966 6.9233 15.8378C6.95516 15.8166 6.98958 15.7982 7.02646 15.7829L11.5557 13.903C10.5694 13.9968 8.60287 14.2003 8.60287 14.2003C7.58671 14.2692 5.24258 14.3059 4.25175 13.9844C3.17241 13.6341 1.85135 12.9873 1.34551 12.3437C0.409353 11.4623 0.277149 10.4813 0.585566 9.50597C1.09068 7.90856 3.42926 7.23958 5.80891 8.01174C6.60656 8.27057 7.30758 8.65846 7.86811 9.11998C7.90493 9.14085 7.94052 9.16548 7.97431 9.194L11.5834 12.2395C11.2806 11.3518 10.9604 10.4211 10.9604 10.4211C10.65 9.42488 10.029 7.08805 10.029 5.99353C10.029 4.80125 10.199 3.27285 10.5723 2.56219C11.0222 1.34507 11.7528 0.901856 12.5903 0.901856C13.962 0.901856 15.074 3.03281 15.074 5.66147Z" fill="#EDD3E3"/>
</svg>
