<svg width="24" height="24" viewBox="0 0 24 24" fill="none" xmlns="http://www.w3.org/2000/svg">
<g clip-path="url(#clip0_372_480)">
<path d="M15.4959 16.0346C15.0412 13.8 13.6276 10.8988 11.4604 8.05415C7.63224 3.02911 2.90236 0.0834693 0.895938 1.47487C-1.11048 2.86628 0.36636 8.06783 4.19455 13.0929C7.64988 17.6285 11.8398 20.47 14.0986 19.9574C14.179 20.3422 14.3448 20.6916 14.6022 20.9879C15.869 22.4464 18.8742 22.0646 21.3144 20.1352C23.7547 18.2058 24.7059 15.4594 23.439 14.0009C22.1722 12.5423 19.167 12.9241 16.7268 14.8535C16.2604 15.2222 15.8484 15.6208 15.4959 16.0346Z" fill="#D16596"/>
<path d="M21.9239 12.0464C20.5793 18.1246 17.2769 22.6065 14.5478 22.057C11.8187 21.5074 10.6964 16.1345 12.0411 10.0562C13.3857 3.97792 16.6881 -0.503973 19.4172 0.0455965C22.1463 0.595167 23.2686 5.96809 21.9239 12.0464Z" fill="#EDD3E3"/>
<path d="M5.38698 14.8875C6.2534 14.2121 7.5189 14.2873 8.29078 15.0601L11.2508 18.0237C13.9967 20.1821 15.4848 20.8661 17.9926 21.8443C18.1349 21.8998 18.2648 21.9814 18.3741 22.0845C19.3257 22.9827 18.2024 24.4537 17.0147 23.8647L5.7542 18.2808C4.38954 17.6041 4.19603 15.816 5.38698 14.8875Z" fill="#8C2654"/>
</g>
<defs>
<clipPath id="clip0_372_480">
<rect width="24" height="24" fill="white"/>
</clipPath>
</defs>
</svg>
